<!-- Copyright © Software Mansion

Permission is hereby granted, free of charge, to any person obtaining a copy of this software and associated documentation files (the “Software”), to deal in the Software without restriction, including without limitation the rights to use, copy, modify, merge, publish, distribute, sublicense, and/or sell copies of the Software, and to permit persons to whom the Software is furnished to do so, subject to the following conditions:

The above copyright notice and this permission notice shall be included in all copies or substantial portions of the Software.

THE SOFTWARE IS PROVIDED “AS IS”, WITHOUT WARRANTY OF ANY KIND, EXPRESS OR IMPLIED, INCLUDING BUT NOT LIMITED TO THE WARRANTIES OF MERCHANTABILITY, FITNESS FOR A PARTICULAR PURPOSE AND NONINFRINGEMENT. IN NO EVENT SHALL THE AUTHORS OR COPYRIGHT HOLDERS BE LIABLE FOR ANY CLAIM, DAMAGES OR OTHER LIABILITY, WHETHER IN AN ACTION OF CONTRACT, TORT OR OTHERWISE, ARISING FROM, OUT OF OR IN CONNECTION WITH THE SOFTWARE OR THE USE OR OTHER DEALINGS IN THE SOFTWARE. -->

<svg width="96" height="22" viewBox="0 0 96 22" fill="none" xmlns="http://www.w3.org/2000/svg">
<path d="M83.3333 7.33333H90.6667M83.3333 11H87.9167M82.4167 14.6667V19.25L87 14.6667H94.3333V3.66667H79.6667V14.6667H82.4167Z" stroke="black" stroke-width="1.5" stroke-linecap="round" stroke-linejoin="round"/>
<path d="M0.958807 10.2727H2.55682L5.33523 17.0568H5.4375L8.21591 10.2727H9.81392V19H8.56108V12.6847H8.48011L5.90625 18.9872H4.86648L2.29261 12.6804H2.21165V19H0.958807V10.2727ZM14.4471 19.1321C13.8022 19.1321 13.2468 18.9943 12.7809 18.7188C12.3178 18.4403 11.9599 18.0497 11.707 17.5469C11.457 17.0412 11.332 16.4489 11.332 15.7699C11.332 15.0994 11.457 14.5085 11.707 13.9972C11.9599 13.4858 12.3121 13.0866 12.7638 12.7997C13.2184 12.5128 13.7496 12.3693 14.3576 12.3693C14.7269 12.3693 15.0849 12.4304 15.4315 12.5526C15.7781 12.6747 16.0891 12.8665 16.3647 13.1278C16.6403 13.3892 16.8576 13.7287 17.0167 14.1463C17.1758 14.5611 17.2553 15.0653 17.2553 15.6591V16.1108H12.0522V15.1562H16.0067C16.0067 14.821 15.9386 14.5241 15.8022 14.2656C15.6658 14.0043 15.4741 13.7983 15.2269 13.6477C14.9826 13.4972 14.6957 13.4219 14.3661 13.4219C14.0082 13.4219 13.6957 13.5099 13.4286 13.6861C13.1644 13.8594 12.9599 14.0866 12.815 14.3679C12.6729 14.6463 12.6019 14.9489 12.6019 15.2756V16.0213C12.6019 16.4588 12.6786 16.831 12.832 17.1378C12.9883 17.4446 13.2056 17.679 13.484 17.8409C13.7624 18 14.0877 18.0795 14.4599 18.0795C14.7013 18.0795 14.9215 18.0455 15.1204 17.9773C15.3192 17.9062 15.4911 17.8011 15.636 17.6619C15.7809 17.5227 15.8917 17.3509 15.9684 17.1463L17.1744 17.3636C17.0778 17.7187 16.9045 18.0298 16.6545 18.2969C16.4073 18.5611 16.0962 18.767 15.7212 18.9148C15.3491 19.0597 14.9244 19.1321 14.4471 19.1321ZM23.5739 14.0526L22.419 14.2571C22.3707 14.1094 22.294 13.9687 22.1889 13.8352C22.0866 13.7017 21.9474 13.5923 21.7713 13.5071C21.5952 13.4219 21.375 13.3793 21.1108 13.3793C20.75 13.3793 20.4489 13.4602 20.2074 13.6222C19.9659 13.7812 19.8452 13.9872 19.8452 14.2401C19.8452 14.4588 19.9261 14.6349 20.0881 14.7685C20.25 14.902 20.5114 15.0114 20.8722 15.0966L21.9119 15.3352C22.5142 15.4744 22.9631 15.6889 23.2585 15.9787C23.554 16.2685 23.7017 16.6449 23.7017 17.108C23.7017 17.5 23.5881 17.8494 23.3608 18.1562C23.1364 18.4602 22.8224 18.6989 22.419 18.8722C22.0185 19.0455 21.554 19.1321 21.0256 19.1321C20.2926 19.1321 19.6946 18.9759 19.2315 18.6634C18.7685 18.348 18.4844 17.9006 18.3793 17.321L19.6108 17.1335C19.6875 17.4545 19.8452 17.6974 20.0838 17.8622C20.3224 18.0241 20.6335 18.1051 21.017 18.1051C21.4347 18.1051 21.7685 18.0185 22.0185 17.8452C22.2685 17.669 22.3935 17.4545 22.3935 17.2017C22.3935 16.9972 22.3168 16.8253 22.1634 16.6861C22.0128 16.5469 21.7812 16.4418 21.4688 16.3707L20.3608 16.1278C19.75 15.9886 19.2983 15.767 19.0057 15.4631C18.7159 15.1591 18.571 14.7741 18.571 14.3082C18.571 13.9219 18.679 13.5838 18.8949 13.294C19.1108 13.0043 19.4091 12.7784 19.7898 12.6165C20.1705 12.4517 20.6065 12.3693 21.098 12.3693C21.8054 12.3693 22.3622 12.5227 22.7685 12.8295C23.1747 13.1335 23.4432 13.5412 23.5739 14.0526ZM30.0075 14.0526L28.8526 14.2571C28.8043 14.1094 28.7276 13.9687 28.6225 13.8352C28.5202 13.7017 28.381 13.5923 28.2049 13.5071C28.0288 13.4219 27.8086 13.3793 27.5444 13.3793C27.1836 13.3793 26.8825 13.4602 26.641 13.6222C26.3995 13.7812 26.2788 13.9872 26.2788 14.2401C26.2788 14.4588 26.3597 14.6349 26.5217 14.7685C26.6836 14.902 26.945 15.0114 27.3058 15.0966L28.3455 15.3352C28.9478 15.4744 29.3967 15.6889 29.6921 15.9787C29.9876 16.2685 30.1353 16.6449 30.1353 17.108C30.1353 17.5 30.0217 17.8494 29.7944 18.1562C29.57 18.4602 29.256 18.6989 28.8526 18.8722C28.4521 19.0455 27.9876 19.1321 27.4592 19.1321C26.7262 19.1321 26.1282 18.9759 25.6651 18.6634C25.2021 18.348 24.918 17.9006 24.8129 17.321L26.0444 17.1335C26.1211 17.4545 26.2788 17.6974 26.5174 17.8622C26.756 18.0241 27.0671 18.1051 27.4506 18.1051C27.8683 18.1051 28.2021 18.0185 28.4521 17.8452C28.7021 17.669 28.8271 17.4545 28.8271 17.2017C28.8271 16.9972 28.7504 16.8253 28.5969 16.6861C28.4464 16.5469 28.2148 16.4418 27.9023 16.3707L26.7944 16.1278C26.1836 15.9886 25.7319 15.767 25.4393 15.4631C25.1495 15.1591 25.0046 14.7741 25.0046 14.3082C25.0046 13.9219 25.1126 13.5838 25.3285 13.294C25.5444 13.0043 25.8427 12.7784 26.2234 12.6165C26.604 12.4517 27.0401 12.3693 27.5316 12.3693C28.239 12.3693 28.7958 12.5227 29.2021 12.8295C29.6083 13.1335 29.8768 13.5412 30.0075 14.0526ZM33.4411 19.1449C33.0263 19.1449 32.6513 19.0682 32.3161 18.9148C31.9808 18.7585 31.7152 18.5327 31.5192 18.2372C31.326 17.9418 31.2294 17.5795 31.2294 17.1506C31.2294 16.7812 31.3004 16.4773 31.4425 16.2386C31.5845 16 31.7763 15.8111 32.0178 15.6719C32.2592 15.5327 32.5291 15.4276 32.8274 15.3565C33.1257 15.2855 33.4297 15.2315 33.7393 15.1946C34.1314 15.1491 34.4496 15.1122 34.6939 15.0838C34.9382 15.0526 35.1158 15.0028 35.2266 14.9347C35.3374 14.8665 35.3928 14.7557 35.3928 14.6023V14.5724C35.3928 14.2003 35.2876 13.9119 35.0774 13.7074C34.87 13.5028 34.5604 13.4006 34.1484 13.4006C33.7195 13.4006 33.3814 13.4957 33.1342 13.6861C32.8899 13.8736 32.7209 14.0824 32.6271 14.3125L31.4297 14.0398C31.5717 13.642 31.7791 13.321 32.0518 13.0767C32.3274 12.8295 32.6442 12.6506 33.0021 12.5398C33.3601 12.4261 33.7365 12.3693 34.1314 12.3693C34.3928 12.3693 34.6697 12.4006 34.9624 12.4631C35.2578 12.5227 35.5334 12.6335 35.7891 12.7955C36.0476 12.9574 36.2592 13.1889 36.424 13.4901C36.5888 13.7884 36.6712 14.1761 36.6712 14.6534V19H35.4268V18.1051H35.3757C35.2933 18.2699 35.1697 18.4318 35.005 18.5909C34.8402 18.75 34.6286 18.8821 34.37 18.9872C34.1115 19.0923 33.8018 19.1449 33.4411 19.1449ZM33.718 18.1222C34.0703 18.1222 34.3714 18.0526 34.6214 17.9134C34.8743 17.7741 35.0661 17.5923 35.1967 17.3679C35.3303 17.1406 35.397 16.8977 35.397 16.6392V15.7955C35.3516 15.8409 35.2635 15.8835 35.1328 15.9233C35.005 15.9602 34.8587 15.9929 34.6939 16.0213C34.5291 16.0469 34.3686 16.071 34.2124 16.0938C34.0561 16.1136 33.9254 16.1307 33.8203 16.1449C33.5732 16.1761 33.3473 16.2287 33.1428 16.3026C32.9411 16.3764 32.7791 16.483 32.657 16.6222C32.5376 16.7585 32.478 16.9403 32.478 17.1676C32.478 17.483 32.5945 17.7216 32.8274 17.8835C33.0604 18.0426 33.3572 18.1222 33.718 18.1222ZM41.1126 21.5909C40.5927 21.5909 40.1452 21.5227 39.7702 21.3864C39.3981 21.25 39.0941 21.0696 38.8583 20.8452C38.6225 20.6207 38.4464 20.375 38.3299 20.108L39.4251 19.6562C39.5018 19.7812 39.604 19.9134 39.7319 20.0526C39.8626 20.1946 40.0387 20.3153 40.2603 20.4148C40.4847 20.5142 40.7731 20.5639 41.1254 20.5639C41.6083 20.5639 42.0075 20.446 42.3228 20.2102C42.6381 19.9773 42.7958 19.6051 42.7958 19.0938V17.8068H42.7148C42.6381 17.946 42.5273 18.1009 42.3825 18.2713C42.2404 18.4418 42.0444 18.5895 41.7944 18.7145C41.5444 18.8395 41.2191 18.902 40.8185 18.902C40.3015 18.902 39.8356 18.7812 39.4208 18.5398C39.0089 18.2955 38.6822 17.9361 38.4407 17.4616C38.2021 16.9844 38.0827 16.3977 38.0827 15.7017C38.0827 15.0057 38.2006 14.4091 38.4364 13.9119C38.6751 13.4148 39.0018 13.0341 39.4165 12.7699C39.8313 12.5028 40.3015 12.3693 40.8271 12.3693C41.2333 12.3693 41.5614 12.4375 41.8114 12.5739C42.0614 12.7074 42.256 12.8636 42.3952 13.0426C42.5373 13.2216 42.6467 13.3793 42.7234 13.5156H42.8171V12.4545H44.0657V19.1449C44.0657 19.7074 43.935 20.169 43.6737 20.5298C43.4123 20.8906 43.0586 21.1577 42.6126 21.331C42.1694 21.5043 41.6694 21.5909 41.1126 21.5909ZM41.0998 17.8452C41.4663 17.8452 41.7759 17.7599 42.0288 17.5895C42.2844 17.4162 42.4776 17.169 42.6083 16.848C42.7418 16.5241 42.8086 16.1364 42.8086 15.6847C42.8086 15.2443 42.7433 14.8565 42.6126 14.5213C42.4819 14.1861 42.2901 13.9247 42.0373 13.7372C41.7844 13.5469 41.4719 13.4517 41.0998 13.4517C40.7163 13.4517 40.3967 13.5511 40.141 13.75C39.8853 13.946 39.6921 14.2131 39.5614 14.5511C39.4336 14.8892 39.3697 15.267 39.3697 15.6847C39.3697 16.1136 39.435 16.4901 39.5657 16.8139C39.6964 17.1378 39.8896 17.3906 40.1452 17.5724C40.4038 17.7543 40.7219 17.8452 41.0998 17.8452ZM48.5955 19.1321C47.9506 19.1321 47.3952 18.9943 46.9293 18.7188C46.4663 18.4403 46.1083 18.0497 45.8555 17.5469C45.6055 17.0412 45.4805 16.4489 45.4805 15.7699C45.4805 15.0994 45.6055 14.5085 45.8555 13.9972C46.1083 13.4858 46.4606 13.0866 46.9123 12.7997C47.3668 12.5128 47.8981 12.3693 48.506 12.3693C48.8754 12.3693 49.2333 12.4304 49.5799 12.5526C49.9265 12.6747 50.2376 12.8665 50.5131 13.1278C50.7887 13.3892 51.006 13.7287 51.1651 14.1463C51.3242 14.5611 51.4038 15.0653 51.4038 15.6591V16.1108H46.2006V15.1562H50.1552C50.1552 14.821 50.087 14.5241 49.9506 14.2656C49.8143 14.0043 49.6225 13.7983 49.3754 13.6477C49.131 13.4972 48.8441 13.4219 48.5146 13.4219C48.1566 13.4219 47.8441 13.5099 47.5771 13.6861C47.3129 13.8594 47.1083 14.0866 46.9634 14.3679C46.8214 14.6463 46.7504 14.9489 46.7504 15.2756V16.0213C46.7504 16.4588 46.8271 16.831 46.9805 17.1378C47.1367 17.4446 47.354 17.679 47.6325 17.8409C47.9109 18 48.2362 18.0795 48.6083 18.0795C48.8498 18.0795 49.07 18.0455 49.2688 17.9773C49.4677 17.9062 49.6396 17.8011 49.7844 17.6619C49.9293 17.5227 50.0401 17.3509 50.1168 17.1463L51.3228 17.3636C51.2262 17.7187 51.0529 18.0298 50.8029 18.2969C50.5558 18.5611 50.2447 18.767 49.8697 18.9148C49.4975 19.0597 49.0728 19.1321 48.5955 19.1321ZM53.657 19H52.2592L55.3999 10.2727H56.9212L60.0618 19H58.6641L56.1967 11.858H56.1286L53.657 19ZM53.8913 15.5824H58.4254V16.6903H53.8913V15.5824ZM61.2198 21.4545V12.4545H62.4641V13.5156H62.5707C62.6445 13.3793 62.7511 13.2216 62.8903 13.0426C63.0295 12.8636 63.2227 12.7074 63.4698 12.5739C63.717 12.4375 64.0437 12.3693 64.4499 12.3693C64.9783 12.3693 65.4499 12.5028 65.8647 12.7699C66.2795 13.0369 66.6048 13.4219 66.8406 13.9247C67.0792 14.4276 67.1985 15.0327 67.1985 15.7401C67.1985 16.4474 67.0806 17.054 66.8448 17.5597C66.609 18.0625 66.2852 18.4503 65.8732 18.723C65.4613 18.9929 64.9911 19.1278 64.4627 19.1278C64.065 19.1278 63.7397 19.0611 63.4869 18.9276C63.2369 18.794 63.0408 18.6378 62.8988 18.4588C62.7567 18.2798 62.6474 18.1207 62.5707 17.9815H62.494V21.4545H61.2198ZM62.4684 15.7273C62.4684 16.1875 62.5352 16.5909 62.6687 16.9375C62.8022 17.2841 62.9954 17.5554 63.2482 17.7514C63.5011 17.9446 63.8107 18.0412 64.1772 18.0412C64.5579 18.0412 64.8761 17.9403 65.1317 17.7386C65.3874 17.5341 65.5806 17.2571 65.7113 16.9077C65.8448 16.5582 65.9116 16.1648 65.9116 15.7273C65.9116 15.2955 65.8462 14.9077 65.7156 14.5639C65.5877 14.2202 65.3945 13.9489 65.136 13.75C64.8803 13.5511 64.5607 13.4517 64.1772 13.4517C63.8079 13.4517 63.4954 13.5469 63.2397 13.7372C62.9869 13.9276 62.7951 14.1932 62.6644 14.5341C62.5337 14.875 62.4684 15.2727 62.4684 15.7273ZM68.6261 21.4545V12.4545H69.8704V13.5156H69.9769C70.0508 13.3793 70.1573 13.2216 70.2965 13.0426C70.4357 12.8636 70.6289 12.7074 70.8761 12.5739C71.1232 12.4375 71.4499 12.3693 71.8562 12.3693C72.3846 12.3693 72.8562 12.5028 73.271 12.7699C73.6857 13.0369 74.011 13.4219 74.2468 13.9247C74.4854 14.4276 74.6048 15.0327 74.6048 15.7401C74.6048 16.4474 74.4869 17.054 74.2511 17.5597C74.0153 18.0625 73.6914 18.4503 73.2795 18.723C72.8675 18.9929 72.3974 19.1278 71.869 19.1278C71.4712 19.1278 71.146 19.0611 70.8931 18.9276C70.6431 18.794 70.4471 18.6378 70.305 18.4588C70.163 18.2798 70.0536 18.1207 69.9769 17.9815H69.9002V21.4545H68.6261ZM69.8746 15.7273C69.8746 16.1875 69.9414 16.5909 70.0749 16.9375C70.2085 17.2841 70.4016 17.5554 70.6545 17.7514C70.9073 17.9446 71.217 18.0412 71.5835 18.0412C71.9641 18.0412 72.2823 17.9403 72.538 17.7386C72.7937 17.5341 72.9869 17.2571 73.1175 16.9077C73.2511 16.5582 73.3178 16.1648 73.3178 15.7273C73.3178 15.2955 73.2525 14.9077 73.1218 14.5639C72.994 14.2202 72.8008 13.9489 72.5423 13.75C72.2866 13.5511 71.967 13.4517 71.5835 13.4517C71.2141 13.4517 70.9016 13.5469 70.646 13.7372C70.3931 13.9276 70.2013 14.1932 70.0707 14.5341C69.94 14.875 69.8746 15.2727 69.8746 15.7273Z" fill="black"/>
</svg>
